<?xml version="1.0" encoding="UTF-8"?><svg id="Layer_2" xmlns="http://www.w3.org/2000/svg" viewBox="0 0 436.7 86.28"><defs><style>.cls-1{fill:#1e4889;}.cls-2{fill:#f9f9fa;}.cls-3{fill:#5c5c5c;}.cls-4{fill:#727373;}.cls-5{fill:#333;}.cls-6{fill:#4167b0;}</style></defs><g id="Layer_1-2"><polygon class="cls-6" points="83.9 2.38 26.56 25.03 61.25 59.72 83.9 2.38"/><g><path class="cls-5" d="M115.49,31.06c.52,.71,.77,1.58,.77,2.59v16.32c0,1.45-.36,2.43-1.07,2.92-.71,.52-1.38,.77-1.99,.77h-33.86c-.59,0-1.26-.26-1.99-.77-.71-.52-1.07-1.49-1.07-2.92v-16.32c0-1.03,.31-1.9,.92-2.59,.61-.74,1.54-1.11,2.77-1.11h32.93c1.23,0,2.09,.37,2.58,1.11Zm-19.2,3.84h-12.63v13.85h25.55v-13.85h-12.92Z"/><path class="cls-5" d="M125.79,29.95l12.33,17.54,12.29-17.54h7.68l-14.77,21.23c-.3,.32-.62,.62-.98,.89-.36,.27-.74,.54-1.16,.81-.81,.52-1.83,.77-3.06,.77s-2.34-.26-3.25-.77c-.94-.52-1.6-1.08-1.99-1.7l-14.77-21.23h7.68Z"/><path class="cls-5" d="M196.57,29.95v4.91h-36.63v-4.91h36.63Zm-8.01,9.23v4.95h-21.23v4.28h29.24v5.24h-36.63v-14.47h28.61Z"/><path class="cls-5" d="M234.11,31.02c.61,.74,.92,1.61,.92,2.62v6.79c0,.99-.21,1.75-.63,2.29s-.83,.9-1.22,1.07c1.23,.64,1.85,1.77,1.85,3.4v6.46h-7.09v-9.53h-22.45v9.53h-7.09v-14.47h29.54v-4.32h-29.54v-4.91h32.93c1.23,0,2.15,.36,2.77,1.07Z"/><path class="cls-6" d="M257.05,38.89l10.45-8.31c1.06-.81,2.64-1.02,4.76-.63,2.17,.42,3.25,1.45,3.25,3.1v20.6h-7.38v-17.24c-.32,.32-.82,.78-1.49,1.37-.68,.59-1.57,1.32-2.68,2.18-1.08,.86-2.2,1.74-3.34,2.64s-2.33,1.82-3.56,2.75c-1.25-.93-2.47-1.85-3.64-2.75-1.17-.9-2.32-1.78-3.45-2.64-2.26-1.72-3.59-2.9-3.99-3.54v17.24h-7.09v-20.6c0-1.65,1.02-2.68,3.06-3.1,2.04-.39,3.69-.19,4.95,.63l10.15,8.31Z"/><path class="cls-6" d="M304.41,29.95c.98,0,2.02,.31,3.1,.92,1.01,.64,1.51,1.56,1.51,2.77v20.01h-7.05v-9.53h-20.93v-4.62h20.93v-4.02c0-.2-.16-.34-.48-.44-.15-.05-.29-.1-.44-.15h-23.7v-4.95h27.06Z"/><path class="cls-6" d="M347.17,34.9h-14.44v18.76h-7.38v-18.76h-14.47v-4.95h36.29v4.95Z"/><path class="cls-6" d="M349.01,29.95h7.38v23.7h-7.38V29.95Z"/><path class="cls-6" d="M398.23,29.95v4.95h-32.6v13.85h32.6v4.91h-36.92c-.59,0-1.25-.26-1.99-.77-.71-.52-1.07-1.49-1.07-2.92v-16.32c0-1.03,.31-1.9,.92-2.59,.61-.74,1.54-1.11,2.77-1.11h36.29Z"/><path class="cls-6" d="M436.7,29.95v4.91h-29.24v4.32h29.24v10.78c0,1.18-.31,2.1-.92,2.77-.61,.62-1.54,.92-2.77,.92h-32.93v-4.91h29.54v-4.62h-29.54v-10.49c0-1.06,.31-1.93,.92-2.62,.61-.71,1.54-1.07,2.77-1.07h32.93Z"/></g><g><polygon class="cls-4" points="3.92 82.36 61.25 59.72 26.56 25.03 3.92 82.36"/><g><path class="cls-4" d="M78.02,28.42h5.67c-.97-2.67-2.19-5.22-3.64-7.61l-3.03,7.69c.32-.05,.65-.07,1.01-.07Z"/><path class="cls-4" d="M77.25,55.19s0,0-.01,0c-4.96,14.04-18.35,24.11-34.09,24.11-5.24,0-10.21-1.12-14.7-3.12l-8.47,3.35c6.7,4.27,14.64,6.76,23.17,6.76,19.64,0,36.2-13.13,41.42-31.09h-7.32Z"/></g></g><polygon class="cls-1" points="83.9 2.38 57.24 28.49 30.58 29.04 26.56 25.03 83.9 2.38"/><path class="cls-2" d="M61.22,31.02c.61,.74,.92,1.61,.92,2.62v6.79c0,.99-.21,1.75-.63,2.29-.42,.54-.83,.9-1.22,1.07,1.23,.64,1.85,1.77,1.85,3.4v6.46h-7.09v-9.53h-22.45v9.53h-7.09v-14.47h29.54v-4.32H25.52v-4.91H58.45c1.23,0,2.15,.36,2.77,1.07Z"/><g><path class="cls-3" d="M10.11,57.84c-2-4.49-3.12-9.46-3.12-14.7C6.98,23.17,23.17,6.98,43.14,6.98c4.83,0,9.43,.95,13.64,2.67l8.69-3.43C58.96,2.27,51.31,0,43.14,0,19.31,0,0,19.31,0,43.14c0,8.53,2.49,16.48,6.76,23.17l3.35-8.47Z"/><polygon class="cls-3" points="3.92 82.36 32.74 55.19 23.71 55.19 23.35 33.16 3.92 82.36"/><polygon class="cls-3" points="34.52 53.65 43.83 45.49 34.52 45.49 34.52 53.65"/></g><g><path d="M83.67,41.8v-6.92h25.55v6.92h7.05v-8.18c0-1.01-.26-1.87-.77-2.59-.49-.74-1.35-1.11-2.58-1.11h-32.93c-1.23,0-2.15,.37-2.77,1.11-.62,.69-.92,1.55-.92,2.59v8.18h7.38Z"/><g><polygon points="134.14 41.8 125.79 29.93 118.11 29.93 126.37 41.8 134.14 41.8"/><polygon points="149.84 41.8 158.1 29.93 150.42 29.93 142.09 41.8 149.84 41.8"/></g><g><rect x="159.94" y="29.93" width="36.63" height="4.91"/><rect x="159.94" y="39.16" width="28.61" height="2.64"/></g><path d="M198.41,39.16v2.64h36.44c.12-.4,.18-.86,.18-1.38v-6.79c0-1.01-.31-1.88-.92-2.62-.61-.71-1.54-1.07-2.77-1.07h-32.93v4.91h29.54v4.32h-29.54Z"/></g><g><path class="cls-1" d="M245.97,41.8v-5.41c.39,.64,1.72,1.82,3.99,3.54,.8,.61,1.62,1.24,2.44,1.86h9.19c.8-.63,1.59-1.26,2.36-1.86,1.11-.86,2-1.59,2.68-2.18,.68-.59,1.17-1.05,1.49-1.37v5.41h7.38v-8.77c0-1.65-1.08-2.68-3.25-3.1-2.12-.39-3.7-.19-4.76,.63l-10.45,8.31-10.15-8.31c-1.25-.81-2.9-1.02-4.95-.63-2.04,.42-3.06,1.45-3.06,3.1v8.77h7.09Z"/><path class="cls-1" d="M301.5,35.03c.32,.1,.48,.25,.48,.44v4.02h-20.93v2.31h27.99v-8.18c0-1.21-.51-2.13-1.51-2.77-1.08-.61-2.12-.92-3.1-.92h-27.06v4.95h23.7c.15,.05,.3,.1,.44,.15Z"/><polygon class="cls-1" points="325.35 41.8 332.73 41.8 332.73 34.88 347.17 34.88 347.17 29.93 310.88 29.93 310.88 34.88 325.35 34.88 325.35 41.8"/><rect class="cls-1" x="349.01" y="29.93" width="7.38" height="11.87"/><path class="cls-1" d="M365.63,41.8v-6.92h32.6v-4.95h-36.29c-1.23,0-2.15,.37-2.77,1.11-.62,.69-.92,1.55-.92,2.59v8.18h7.38Z"/><path class="cls-1" d="M436.7,41.8v-2.64h-29.24v-4.32h29.24v-4.91h-32.93c-1.23,0-2.15,.36-2.77,1.07-.62,.69-.92,1.56-.92,2.62v8.18h36.62Z"/></g></g></svg>
